<?xml version="1.0" standalone="no"?><!DOCTYPE svg PUBLIC "-//W3C//DTD SVG 1.1//EN" "http://www.w3.org/Graphics/SVG/1.1/DTD/svg11.dtd"><svg t="1742525365214" class="icon" viewBox="0 0 1024 1024" version="1.1" xmlns="http://www.w3.org/2000/svg" p-id="3441" width="32" height="32" xmlns:xlink="http://www.w3.org/1999/xlink"><path d="M928.914286 629.028571c-14.628571-29.257143-29.257143-43.885714-65.828572-73.142857-36.571429-21.942857-73.142857-29.257143-95.085714-29.257143-51.2 0-87.771429 14.628571-117.028571 36.571429-73.142857 51.2-73.142857 146.285714-73.142858 146.285714s29.257143-43.885714 73.142858-73.142857c29.257143-21.942857 73.142857-29.257143 102.4-29.257143 87.771429 0 95.085714 87.771429 95.085714 87.771429h-146.285714c0-43.885714 21.942857-65.828571 21.942857-65.828572s-102.4 43.885714-102.4 146.285715c0 7.314286 0 29.257143 7.314285 51.2 7.314286 14.628571 14.628571 36.571429 21.942858 51.2 29.257143 36.571429 65.828571 58.514286 80.457142 58.514285 21.942857 7.314286 43.885714 7.314286 65.828572 7.314286 58.514286 0 102.4-21.942857 117.028571-29.257143v-87.771428c-14.628571 7.314286-58.514286 29.257143-102.4 29.257143-102.4 0-102.4-87.771429-102.4-87.771429H950.857143V731.428571s0-36.571429-7.314286-58.514285c-7.314286-21.942857-7.314286-36.571429-14.628571-43.885715zM548.571429 219.428571c-21.942857 0-36.571429 14.628571-36.571429 36.571429s14.628571 36.571429 36.571429 36.571429 36.571429-14.628571 36.571428-36.571429-14.628571-36.571429-36.571428-36.571429z m-292.571429 0c-21.942857 0-36.571429 14.628571-36.571429 36.571429s14.628571 36.571429 36.571429 36.571429 36.571429-14.628571 36.571429-36.571429-14.628571-36.571429-36.571429-36.571429zM804.571429 73.142857H219.428571c-80.457143 0-146.285714 65.828571-146.285714 146.285714v585.142858c0 80.457143 65.828571 146.285714 146.285714 146.285714h292.571429v-73.142857H219.428571c-43.885714 0-73.142857-29.257143-73.142857-73.142857V402.285714h731.428572v73.142857h73.142857V219.428571c0-80.457143-65.828571-146.285714-146.285714-146.285714z m73.142857 256H146.285714V219.428571c0-43.885714 29.257143-73.142857 73.142857-73.142857h585.142858c43.885714 0 73.142857 29.257143 73.142857 73.142857v109.714286zM402.285714 219.428571c-21.942857 0-36.571429 14.628571-36.571428 36.571429s14.628571 36.571429 36.571428 36.571429 36.571429-14.628571 36.571429-36.571429-14.628571-36.571429-36.571429-36.571429z" fill="#1296db" p-id="3442"></path></svg>